<?xml version="1.0" encoding="UTF-8" ?>
<!DOCTYPE svg PUBLIC "-//W3C//DTD SVG 1.1//EN" "http://www.w3.org/Graphics/SVG/1.1/DTD/svg11.dtd">
<svg width="256pt" height="256pt" viewBox="0 0 256 256" version="1.1" xmlns="http://www.w3.org/2000/svg">
<path fill="#f7a253" d=" M 152.27 51.73 C 168.11 49.02 185.31 51.82 198.35 61.61 C 206.25 67.80 213.27 75.48 217.29 84.79 C 220.25 91.82 222.27 99.39 222.12 107.06 C 222.06 111.70 222.43 116.44 221.10 120.94 C 232.53 126.56 241.57 137.34 243.83 150.02 C 247.17 163.66 242.50 178.72 232.74 188.69 C 225.31 195.72 215.34 200.49 204.96 200.18 C 155.63 200.20 106.29 200.18 56.96 200.19 C 47.23 200.53 37.64 196.82 29.90 191.10 C 25.40 186.97 20.69 182.81 17.78 177.35 C 14.30 171.13 11.85 164.14 11.86 156.94 C 11.76 151.14 11.60 145.19 13.50 139.62 C 18.48 122.19 34.56 108.81 52.51 106.66 C 55.56 94.74 64.38 84.69 75.36 79.35 C 83.32 75.41 92.45 75.40 101.11 76.14 C 105.22 76.71 109.18 78.11 112.87 79.99 C 121.05 65.38 135.84 54.85 152.27 51.73 Z" />
<path fill="#1C1C1C" d=" M 128.98 85.89 C 136.94 73.79 151.52 66.26 166.00 66.97 C 184.64 67.95 201.40 82.66 205.17 100.88 C 207.18 109.57 205.78 118.88 201.83 126.83 C 200.94 128.96 199.09 131.31 200.21 133.70 C 204.28 134.23 208.63 133.52 212.38 135.59 C 220.16 138.61 225.88 145.72 227.84 153.74 C 228.32 159.11 228.52 164.90 225.73 169.73 C 221.74 178.30 212.54 184.38 203.02 184.04 C 153.96 183.94 104.91 184.05 55.86 183.98 C 39.86 182.66 26.29 167.01 28.01 150.87 C 29.00 139.67 36.89 129.64 47.07 125.15 C 52.90 122.40 59.58 122.51 65.81 123.57 C 66.55 123.16 67.28 122.74 68.01 122.33 C 66.76 118.81 67.56 115.15 68.15 111.59 C 71.12 101.42 80.28 93.22 90.88 92.01 C 98.85 90.85 106.34 94.77 112.19 99.83 C 114.95 103.15 117.54 106.72 118.51 111.02 C 119.63 110.96 120.75 110.90 121.87 110.84 C 121.45 102.05 123.97 93.13 128.98 85.89 Z" />
</svg>
