<svg xmlns="http://www.w3.org/2000/svg" viewBox="0 0 56 56">
    <path d="M36.985 0H7.963C7.155 0 6.5.655 6.5 1.926V55c0 .345.655 1 1.463 1h40.074c.808 0 1.463-.655 1.463-1V12.978c0-.696-.093-.92-.257-1.085L37.607.257A.884.884 0 0 0 36.985 0z" fill="#e9e9e0"/>
    <path fill="#d9d7ca" d="M37.5.151V12h11.849z"/>
    <path d="M48.037 56H7.963A1.463 1.463 0 0 1 6.5 54.537V39h43v15.537c0 .808-.655 1.463-1.463 1.463z" fill="#0096e6"/>
    <g fill="#fff">
        <path d="M16.361 53l3.527-10.063h1.627L25.016 53H23.32l-.725-2.092h-3.787L18.07 53h-1.709zm2.83-3.199h3.008l-1.49-4.348-1.518 4.348zM29.828 53.055l-3.131-10.131h1.873l2.338 8.695 2.475-8.695h1.859l-3.281 10.131h-2.133zM38.988 53H37.32V42.924h1.668V53z"/>
    </g>
    <path fill="#c8bdb8" d="M23.5 28V14l11 7z"/>
</svg>
