<svg xmlns="http://www.w3.org/2000/svg" viewBox="0 0 56 56">
    <path d="M36.985 0H7.963C7.155 0 6.5.655 6.5 1.926V55c0 .345.655 1 1.463 1h40.074c.808 0 1.463-.655 1.463-1V12.978c0-.696-.093-.92-.257-1.085L37.607.257A.884.884 0 0 0 36.985 0z" fill="#e9e9e0"/>
    <path fill="#d9d7ca" d="M37.5.151V12h11.849z"/>
    <path d="M48.037 56H7.963A1.463 1.463 0 0 1 6.5 54.537V39h43v15.537c0 .808-.655 1.463-1.463 1.463z" fill="#71c285"/>
    <path d="M24.65 53.05V43h-1.93l-2.85 8.5h-.03L16.97 43h-1.95v10.05h1.32v-5.93c0-.3-.03-1.57-.03-2.5h.03l2.83 8.43h1.34l2.83-8.44h.03c0 .94-.03 2.21-.03 2.51v5.93zm3.43-3.53l1.59-1.51 3.51 5.04h1.76l-4.29-5.99L34.83 43h-1.87l-4.88 4.87V43h-1.35v10.05h1.35zm11.61 2.05h-.03L36.79 43h-1.51l3.67 10.05h1.44L44.06 43h-1.53z" fill="#fff"/>
    <path fill="#c8bdb8" d="M23.5 28V14l11 7z"/>
</svg>
