<svg xmlns="http://www.w3.org/2000/svg" viewBox="0 0 56 56">
    <path d="M36.985 0H7.963C7.155 0 6.5.655 6.5 1.926V55c0 .345.655 1 1.463 1h40.074c.808 0 1.463-.655 1.463-1V12.978c0-.696-.093-.92-.257-1.085L37.607.257A.884.884 0 0 0 36.985 0z" fill="#e9e9e0"/>
    <path fill="#d9d7ca" d="M37.5.151V12h11.849z"/>
    <path d="M48.037 56H7.963A1.463 1.463 0 0 1 6.5 54.537V39h43v15.537c0 .808-.655 1.463-1.463 1.463z" fill="#556080"/>
    <g fill="#fff">
        <path d="M25.266 42.924v1.326l-4.799 7.205-.273.219h5.072V53h-6.699v-1.326l4.799-7.205.287-.219h-5.086v-1.326h6.699zM29.271 53h-1.668V42.924h1.668V53zM33.414 53h-1.641V42.924h2.898c.428 0 .852.068 1.271.205.419.137.795.342 1.128.615.333.273.602.604.807.991s.308.822.308 1.306c0 .511-.087.973-.26 1.388a2.9 2.9 0 0 1-.725 1.046c-.31.282-.684.501-1.121.656s-.921.232-1.449.232h-1.217V53zm0-8.832v3.992h1.504c.2 0 .398-.034.595-.103.196-.068.376-.18.54-.335s.296-.371.396-.649c.1-.278.15-.622.15-1.032 0-.164-.023-.354-.068-.567a1.637 1.637 0 0 0-.28-.615 1.657 1.657 0 0 0-.595-.492c-.255-.132-.593-.198-1.012-.198h-1.23z"/>
    </g>
    <g fill="#c8bdb8">
        <path d="M28.5 24v-2h2v-2h-2v-2h2v-2h-2v-2h2v-2h-2v-2h2V8h-2V6h-2v2h-2v2h2v2h-2v2h2v2h-2v2h2v2h-2v2h2v2h-4v5c0 2.757 2.243 5 5 5s5-2.243 5-5v-5h-4zm2 5c0 1.654-1.346 3-3 3s-3-1.346-3-3v-3h6v3z"/>
        <path d="M26.5 30h2a1 1 0 1 0 0-2h-2a1 1 0 1 0 0 2z"/>
    </g>
</svg>
